<svg version="1.2" xmlns="http://www.w3.org/2000/svg" viewBox="0 0 1280 720" width="1280" height="720"><style>tspan{white-space:pre}.a{font-size: 30px;fill: #ffffff;font-weight: 400;font-family: "Raleway-Regular", "Raleway"}</style><text style="transform:matrix(1,-0.024,.024,1,65.938,325.863)" ><tspan x="-38.8" y="0" class="a">o</tspan><tspan  y="0" class="a">b</tspan><tspan  y="0" class="a">r</tspan><tspan  y="0" class="a">a</tspan><tspan  y="0" class="a">s</tspan><tspan  y="0" class="a">
</tspan></text><text style="transform:matrix(1,0,0,1,218,103)" ><tspan x="-78.2" y="0" class="a">r</tspan><tspan  y="0" class="a">e</tspan><tspan  y="0" class="a">s</tspan><tspan  y="0" class="a">i</tspan><tspan  y="0" class="a">d</tspan><tspan  y="0" class="a">e</tspan><tspan  y="0" class="a">n</tspan><tspan  y="0" class="a">c</tspan><tspan  y="0" class="a">i</tspan><tspan  y="0" class="a">a</tspan><tspan  y="0" class="a">s</tspan><tspan  y="0" class="a">
</tspan></text><text style="transform:matrix(1,0,0,1,1070.473,134.206)" ><tspan x="-106.2" y="0" class="a">c</tspan><tspan  y="0" class="a">o</tspan><tspan  y="0" class="a">l</tspan><tspan  y="0" class="a">a</tspan><tspan  y="0" class="a">b</tspan><tspan  y="0" class="a">o</tspan><tspan  y="0" class="a">r</tspan><tspan  y="0" class="a">a</tspan><tspan  y="0" class="a">c</tspan><tspan  y="0" class="a">i</tspan><tspan  y="0" class="a">o</tspan><tspan  y="0" class="a">n</tspan><tspan  y="0" class="a">e</tspan><tspan  y="0" class="a">s</tspan><tspan  y="0" class="a">
</tspan></text><text style="transform:matrix(1,0,0,1,1165.946,580.103)" ><tspan x="-47.7" y="0" class="a">s</tspan><tspan  y="0" class="a">h</tspan><tspan  y="0" class="a">o</tspan><tspan  y="0" class="a">w</tspan><tspan  y="0" class="a">s</tspan><tspan  y="0" class="a"> </tspan><tspan  y="0" class="a">
</tspan></text><text style="transform:matrix(1,0,0,1,213.473,614.261)" ><tspan x="-82.3" y="0" class="a">l</tspan><tspan  y="0" class="a">a</tspan><tspan  y="0" class="a">b</tspan><tspan  y="0" class="a">o</tspan><tspan  y="0" class="a">r</tspan><tspan  y="0" class="a">a</tspan><tspan  y="0" class="a">t</tspan><tspan  y="0" class="a">o</tspan><tspan  y="0" class="a">r</tspan><tspan  y="0" class="a">i</tspan><tspan  y="0" class="a">o</tspan><tspan  y="0" class="a">s</tspan><tspan  y="0" class="a">
</tspan></text></svg>